<svg width="16" height="15" viewBox="0 0 16 15" fill="none" xmlns="http://www.w3.org/2000/svg">
<path d="M11.1738 14.6794C10.6563 14.817 10.1668 14.8973 9.67772 14.9234C8.84205 14.9712 8.03728 14.8695 7.28959 14.626C6.02103 14.2116 4.95659 13.4293 4.12494 12.2966C3.60564 11.5896 3.21321 10.7845 2.95975 9.90502C2.70677 9.02753 2.62092 8.13883 2.7072 7.26666C2.79646 6.35841 3.06764 5.4973 3.51102 4.70878C3.98103 3.87373 4.61884 3.1498 5.40986 2.55124C6.0971 2.03011 6.86422 1.61648 7.69135 1.31979C7.9063 1.24189 8.12371 1.17371 8.34169 1.11576C8.7587 1.00491 9.1846 0.929075 9.608 0.891273L9.6792 0.884805C10.0072 0.853682 10.3456 0.82393 10.7471 0.87502C10.7471 0.87502 10.7803 0.87863 11.316 0.956331C11.3308 0.958639 11.3432 0.967791 11.3523 0.979896C11.7368 1.65009 12.0865 2.35032 12.392 3.06019C12.7622 3.92107 13.0785 4.81702 13.3303 5.72182C13.3367 5.74711 13.3251 5.77304 13.3009 5.78153C13.3009 5.78153 13.0762 5.87658 13.0724 5.87759C13.061 5.88061 13.0468 5.88025 13.0377 5.87643C12.5749 5.67137 12.0938 5.52935 11.6076 5.45512C11.3273 5.41126 10.8601 5.34027 10.2661 5.42342C10.1058 5.44529 9.94598 5.47738 9.78865 5.51921C9.71663 5.53835 9.64649 5.557 9.57405 5.58248C9.12365 5.7292 8.73429 5.90122 8.38374 6.10653C7.83808 6.42807 7.46891 6.77537 7.22546 7.20344C6.95347 7.67856 6.88459 8.18066 7.01775 8.69757C7.10601 9.03747 7.24316 9.32285 7.43652 9.5746C7.71405 9.93479 8.07733 10.1704 8.51541 10.2782C8.97731 10.3921 9.45558 10.3792 9.97685 10.2406C10.0565 10.2195 10.1337 10.1969 10.2118 10.1699C10.7493 9.9917 11.2401 9.7491 11.6701 9.45002C11.8424 9.33155 12.0064 9.19658 12.1594 9.05001C12.5191 8.70524 12.7241 8.37253 12.9215 8.05012C13.1362 7.70027 13.327 7.32772 13.4858 6.94083C13.4909 6.92909 13.5008 6.92023 13.5117 6.91527L13.7317 6.81734C13.7525 6.8118 13.7754 6.82232 13.7865 6.8422C14.1453 7.50677 14.4759 8.19547 14.7718 8.89129C15.1343 9.7459 15.4524 10.6331 15.7155 11.5266C15.7185 11.5382 15.719 11.5485 15.7139 11.5602C15.7065 11.5788 15.6968 11.6042 15.6842 11.6345C15.4291 12.2401 14.9726 12.594 14.443 13.0027C14.3685 13.0598 14.2926 13.1195 14.2166 13.1791C13.515 13.7311 12.7205 14.1644 11.8582 14.4663C11.6276 14.5463 11.3989 14.6175 11.1771 14.6765L11.1738 14.6794Z" fill="currentColor"/>
<path d="M8.35073 1.16735C8.76395 1.0575 9.18416 0.983177 9.60756 0.945375C9.95358 0.913608 10.3119 0.874423 10.7367 0.929696C10.7367 0.929696 10.7699 0.933305 11.3051 1.00906C11.6529 1.61427 12.0067 2.30715 12.3414 3.08402C12.7543 4.04152 13.0545 4.93761 13.2777 5.73787C13.203 5.7702 13.1277 5.80059 13.053 5.83292C12.4805 5.57813 11.9758 5.46312 11.61 5.4088C11.2965 5.36133 10.8402 5.29366 10.2543 5.37674C10.092 5.39911 9.93224 5.4312 9.77112 5.47403C9.69909 5.49318 9.62517 5.51283 9.55462 5.53781C9.13595 5.67402 8.73374 5.84323 8.35343 6.06683C7.88006 6.34631 7.45766 6.69115 7.17726 7.18096C6.90387 7.65852 6.8237 8.17193 6.96517 8.71363C7.05047 9.04186 7.18777 9.3438 7.39266 9.6091C7.67933 9.98139 8.04978 10.2214 8.49833 10.3305C9.00118 10.4543 9.49684 10.4222 9.98399 10.2927C10.0636 10.2716 10.1427 10.2485 10.2227 10.221C10.7456 10.0488 11.2379 9.81199 11.6938 9.49562C11.8708 9.37175 12.0348 9.23678 12.1878 9.09022C12.5456 8.74594 12.7455 8.42498 12.9574 8.08003C13.1268 7.8066 13.3313 7.43247 13.5259 6.96339C13.5969 6.93207 13.6679 6.90075 13.7388 6.86943C14.07 7.48111 14.4029 8.16297 14.7231 8.91462C15.1205 9.85129 15.4263 10.7376 15.6653 11.5441C15.6593 11.5602 15.6496 11.5856 15.6351 11.6164C15.3499 12.2944 14.8045 12.6491 14.1825 13.1404C13.471 13.7012 12.6878 14.1233 11.8383 14.4197C11.6134 14.4982 11.3884 14.5684 11.1609 14.6288C10.6738 14.7583 10.1796 14.844 9.67297 14.8728C8.86721 14.9188 8.07347 14.8287 7.30147 14.5771C6.011 14.1561 4.97219 13.3712 4.16171 12.2661C3.63566 11.5484 3.25377 10.7529 3.00475 9.89098C2.7572 9.03488 2.66532 8.16232 2.75334 7.27308C2.84169 6.36922 3.10826 5.52181 3.55023 4.73573C4.02816 3.88404 4.66423 3.17718 5.43497 2.5944C6.1312 2.06881 6.88793 1.66209 7.70229 1.37086C7.91534 1.29347 8.13134 1.22774 8.34933 1.1698M8.32465 1.07254C8.10667 1.13048 7.88736 1.19916 7.67053 1.27757C6.8396 1.57527 6.06918 1.99186 5.37675 2.51644C4.58054 3.11845 3.93802 3.84779 3.46521 4.68774C3.01763 5.48361 2.74554 6.3491 2.65636 7.26564C2.56917 8.1422 2.65601 9.03479 2.91096 9.92007C3.1659 10.8053 3.56122 11.6139 4.08389 12.3262C4.9218 13.4677 5.9939 14.2561 7.27341 14.6739C8.02778 14.9198 8.83873 15.0219 9.68058 14.9746C10.1734 14.9474 10.6667 14.8661 11.188 14.7275C11.4098 14.6686 11.6405 14.5969 11.873 14.5164C12.7409 14.213 13.5392 13.7786 14.2455 13.2213C14.3234 13.1611 14.3974 13.102 14.4719 13.0448C15.0062 12.6308 15.4684 12.2754 15.7281 11.6561C15.7407 11.6258 15.7518 11.5979 15.7578 11.5817C15.7667 11.5607 15.7669 11.5378 15.7615 11.5164C15.4979 10.621 15.1798 9.73381 14.8163 8.87531C14.5199 8.17754 14.1889 7.4869 13.8282 6.82284C13.8059 6.78306 13.7601 6.76202 13.7184 6.7731C13.7127 6.77462 13.7089 6.77562 13.7033 6.77713L13.4904 6.8711C13.4667 6.88154 13.4493 6.9007 13.4391 6.92418C13.2817 7.30862 13.0923 7.67872 12.879 8.02612C12.6745 8.36078 12.4794 8.67634 12.1244 9.01571C11.9747 9.15933 11.8126 9.29379 11.6422 9.41176C11.216 9.70984 10.7285 9.94948 10.1962 10.1242C10.1175 10.1493 10.0389 10.1743 9.9631 10.1945C9.44942 10.331 8.97923 10.3439 8.52351 10.2304C8.09639 10.1259 7.74216 9.89409 7.47139 9.54457C7.2819 9.3001 7.14763 9.0181 7.06135 8.68598C6.92974 8.18319 6.99779 7.69377 7.26228 7.22895C7.50202 6.81017 7.8641 6.46683 8.40316 6.1512C8.75182 5.94639 9.13788 5.77733 9.58449 5.63161C9.65553 5.60858 9.72517 5.58799 9.7953 5.56935C9.95074 5.52803 10.1105 5.49593 10.2666 5.47313C10.8506 5.39055 11.3159 5.46204 11.5938 5.50446C12.0781 5.5792 12.5545 5.71834 13.0111 5.92296C13.0316 5.93204 13.0544 5.93428 13.0753 5.92873C13.0791 5.92773 13.0847 5.92622 13.0885 5.92521L13.3133 5.83016C13.3592 5.81173 13.3844 5.75936 13.3696 5.70929C13.1173 4.80255 12.8005 3.90465 12.4299 3.04183C12.1238 2.33001 11.7718 1.62834 11.3868 0.956202C11.3718 0.92904 11.345 0.911241 11.3155 0.906624C10.7847 0.831805 10.7466 0.825313 10.7466 0.825313C10.3409 0.773286 9.99863 0.804045 9.66826 0.833727L9.59517 0.840699C9.16987 0.879005 8.74208 0.955347 8.32128 1.06721L8.32465 1.07254Z" fill="#F3F3F1"/>
<path d="M3.80423 2.43381L0.499442 2.4292C0.479575 2.42918 0.461865 2.44293 0.456058 2.46238C-0.388879 5.29212 -0.203226 6.72863 2.2437 8.75574C2.25394 8.76422 2.26799 8.76788 2.28094 8.76542C5.19421 8.21232 6.04206 7.04265 6.77992 4.15547C6.78514 4.13505 6.77629 4.11309 6.75825 4.10286L3.82607 2.43961C3.81939 2.43582 3.81187 2.43382 3.80423 2.43381Z" fill="#F588B9"/>
<path d="M4.74044 4.03556L3.12466 3.75304L1.98723 5.51798L2.80624 5.66119L1.96798 7.14179L4.25072 5.32461L3.22418 5.14512L4.74044 4.03556Z" fill="#F3F3F1"/>
</svg>
